<?xml version="1.0" standalone="no"?>
<!DOCTYPE svg PUBLIC "-//W3C//DTD SVG 20010904//EN"
 "http://www.w3.org/TR/2001/REC-SVG-20010904/DTD/svg10.dtd">
<svg version="1.0" xmlns="http://www.w3.org/2000/svg"
 width="801.000000pt" height="801.000000pt" viewBox="0 0 801.000000 801.000000"
 preserveAspectRatio="xMidYMid meet">
<metadata>
Created by potrace 1.11, written by Peter Selinger 2001-2013
</metadata>
<g transform="translate(0.000000,801.000000) scale(0.100000,-0.100000)"
fill="#000000" stroke="none">
<path d="M0 4010 l0 -3470 4005 0 4005 0 0 3470 0 3470 -4005 0 -4005 0 0
-3470z m6227 2253 c-3 -16 -9 -37 -13 -47 -6 -17 1 -15 48 12 l55 32 722 0
c396 0 721 -3 721 -8 0 -4 -18 -39 -41 -77 -23 -39 -73 -131 -112 -205 -84
-161 -332 -597 -394 -693 -68 -106 -123 -150 -223 -177 -49 -14 -468 -16 -647
-4 -61 4 -163 1 -251 -7 -148 -12 -149 -12 -186 10 -20 12 -36 27 -36 32 0 5
-7 9 -15 9 -10 0 -15 10 -15 34 l0 35 -52 -19 c-29 -10 -89 -33 -133 -51 l-80
-33 -379 0 c-297 -1 -380 -4 -384 -14 -10 -31 -35 -42 -93 -42 -54 0 -61 2
-71 25 -8 18 -19 25 -40 25 -35 0 -35 10 -2 97 14 38 88 250 165 473 136 393
142 406 182 444 38 35 123 101 154 119 13 8 6 -24 -23 -99 -9 -23 -14 -48 -12
-55 2 -7 19 30 37 82 19 52 38 102 43 112 8 16 44 17 545 17 l536 0 -6 -27z
m-4374 -75 c56 -160 272 -762 297 -828 25 -64 36 -81 56 -86 33 -8 72 -57 80
-100 5 -27 2 -42 -13 -62 -53 -71 -146 -84 -532 -76 -488 10 -652 19 -688 37
-73 38 -96 117 -49 166 26 28 34 66 141 696 25 149 47 276 50 283 3 9 77 12
324 12 l319 0 15 -42z m2110 -93 c150 -839 143 -807 175 -835 32 -27 52 -75
52 -125 0 -49 -72 -110 -150 -126 -23 -4 2 -7 73 -8 102 -1 108 -2 116 -23 4
-13 27 -135 50 -273 24 -137 46 -253 50 -257 4 -4 42 96 86 222 l80 229 100
46 100 45 542 3 542 3 -5 -23 c-6 -22 -4 -23 20 -13 21 8 360 12 804 10 l53 0
-16 -30 c-9 -17 -13 -40 -10 -50 8 -24 -13 -64 -132 -259 -138 -225 -147 -238
-206 -269 l-52 -27 -303 -3 c-262 -3 -307 -1 -327 12 -34 23 -41 20 -55 -16
-32 -89 -269 -772 -496 -1433 -309 -900 -294 -857 -309 -851 -7 2 -45 28 -84
57 -39 28 -73 50 -75 48 -1 -2 -13 -25 -25 -51 -39 -82 -88 -90 -471 -78 -254
8 -269 11 -322 67 -15 15 -31 39 -36 52 -8 22 -11 18 -31 -38 -13 -33 -26 -61
-30 -60 -3 0 -30 34 -60 75 l-53 76 -48 216 c-53 239 -62 270 -85 278 -25 10
-34 36 -65 190 -32 159 -36 194 -20 210 7 7 7 33 1 80 -11 75 -168 804 -175
811 -2 2 -9 -26 -16 -64 -6 -37 -44 -250 -83 -473 l-72 -405 -399 0 -400 0
-92 523 c-50 288 -94 525 -97 528 -6 6 15 100 -217 -970 -167 -768 -208 -942
-235 -1003 l-34 -73 -540 0 c-622 0 -552 -15 -526 113 13 65 274 1576 327
1894 12 72 25 130 29 127 4 -2 11 1 15 7 4 8 3 9 -4 5 -17 -10 -15 12 8 141
11 61 40 233 65 384 25 150 48 275 50 278 7 6 1342 7 1349 0 4 -3 67 -177 141
-385 74 -208 138 -386 141 -394 4 -9 17 17 34 65 15 44 46 132 69 195 23 63
71 199 105 301 35 102 69 195 75 207 11 21 19 22 129 23 105 1 111 2 56 9 -79
11 -151 45 -169 80 -8 15 -17 46 -21 69 -6 38 -4 44 30 76 21 19 48 38 61 41
15 4 28 18 35 37 23 64 70 198 178 512 61 176 115 332 121 348 l11 27 327 -2
328 -3 18 -100z"/>
<path d="M5055 6040 c-4 -12 -5 -24 -2 -27 3 -2 8 5 12 17 4 12 5 24 2 27 -3
2 -8 -5 -12 -17z"/>
<path d="M914 4668 c-4 -7 -3 -8 5 -4 6 4 14 0 17 -8 6 -16 24 -12 24 5 0 6
-4 7 -10 4 -5 -3 -10 -1 -10 4 0 15 -17 14 -26 -1z"/>
<path d="M913 4544 c0 -17 2 -22 7 -13 5 6 6 18 3 26 -8 19 -10 16 -10 -13z"/>
<path d="M880 4540 c0 -5 5 -10 10 -10 6 0 10 5 10 10 0 6 -4 10 -10 10 -5 0
-10 -4 -10 -10z"/>
<path d="M890 4510 c0 -5 5 -10 11 -10 5 0 7 5 4 10 -3 6 -8 10 -11 10 -2 0
-4 -4 -4 -10z"/>
<path d="M902 4478 c2 -7 -2 -12 -8 -11 -7 1 -10 -6 -7 -17 3 -12 10 -17 21
-12 11 4 12 7 4 10 -10 3 -10 7 -2 17 8 9 8 15 0 20 -6 4 -9 1 -8 -7z"/>
<path d="M850 4304 c0 -9 -5 -12 -12 -8 -7 4 -8 3 -4 -5 6 -9 12 -9 24 1 10 7
18 13 20 14 2 1 -4 4 -13 7 -9 4 -15 1 -15 -9z"/>
<path d="M870 4220 c-6 -11 -8 -20 -6 -20 3 0 10 9 16 20 6 11 8 20 6 20 -3 0
-10 -9 -16 -20z"/>
<path d="M836 4139 c3 -5 10 -6 16 -3 8 5 9 1 5 -10 -4 -11 -3 -15 4 -11 14
10 6 28 -14 31 -9 1 -15 -2 -11 -7z"/>
<path d="M4250 3694 c-38 -98 -330 -968 -326 -971 6 -6 45 100 170 457 113
324 113 325 143 328 16 2 34 -3 40 -10 6 -7 34 -141 63 -298 28 -157 60 -312
71 -345 10 -33 17 -49 15 -35 -53 327 -152 887 -157 894 -5 5 -13 -4 -19 -20z"/>
<path d="M4431 2764 c0 -11 3 -14 6 -6 3 7 2 16 -1 19 -3 4 -6 -2 -5 -13z"/>
</g>
</svg>
